# xmcd
#
# Track frame offsets:
# 150
# 26147
# 47085
# 68844
# 100405
# 122115
# 148461
# 173629
# 199350
# 218122
# 234842
# 255633
# 276436
#
# Disc length: 4027 seconds
#
#
# Revision: 5
# Processed by: cddbd v1.5PL3 Copyright (c) Steve Scherf et al.
# Submitted via: FreeRIP 2.60 
#
DISCID=cb0fb90d
DTITLE=Tower Of Power - Rhythm and Business
DYEAR=1997
DGENRE=Blues
TTITLE0=So I got to groove
TTITLE1=Crazy for you
TTITLE2=East Bay way
TTITLE3=Unconditional love
TTITLE4=You do the math
TTITLE5=The more you know
TTITLE6=Recapture the magic
TTITLE7=What's your trip
TTITLE8=Rhythm and business
TTITLE9=Dont knock me down
TTITLE10=That was then and this is now
TTITLE11=It really doesn't matter
TTITLE12=Spank-a-dang
EXTD=
EXTT0=
EXTT1=
EXTT2=
EXTT3=
EXTT4=
EXTT5=
EXTT6=
EXTT7=
EXTT8=
EXTT9=
EXTT10=
EXTT11=
EXTT12=
PLAYORDER=
